
<svg xmlns="http://www.w3.org/2000/svg" width="210mm" height="297mm" viewBox="0 0 210 297"><defs><filter style="color-interpolation-filters:sRGB" id="a" x="0" width="1" y="0" height="1"><feGaussianBlur/></filter></defs><g style="opacity:.47749927;filter:url(#a)"><path style="fill:#ed254e;stroke:#ed254e;stroke-width:.264583px;stroke-linecap:butt;stroke-linejoin:miter;stroke-opacity:1" d="M40.86 43.134c-.846 1.446 7.851-2.988 11.981-3.763 3.418-.64 10.36-.724 10.36-.724s5.941.209 8.87.67c2.648.418 5.215 1.248 7.818 1.89.935.231 1.793.44 2.75.555 5.147.611 15.983.38 15.983.38 1.035-2.313-9.388-10.74-17.96-11.38-8.505-.635-14.992.867-22.26 2.597-3.848.916-7.284 2.484-10.84 4.216-1.751.852-3.01 1.59-4.731 3.185-.677.628-1.397 1.392-1.972 2.374z" transform="translate(-22.117 -6.19)"/><path style="fill:none;stroke:#ed254e;stroke-width:1.26458px;stroke-linecap:butt;stroke-linejoin:miter;stroke-opacity:1" d="M49.693 70.93v7.598M26.328 61.854l.015.016a6.287 6.287 0 0 0 .21.21c.212.21.431.413.653.612a29.343 29.343 0 0 0 2.537 2.022 33.426 33.426 0 0 0 9.576 4.748c4.764 1.465 9.87 1.766 14.785.944 6.925-1.158 13.368-4.417 19.042-8.552M29.743 64.714l-4.265 7.388M39.32 69.462l-1.95 7.275M60.063 68.851l3.055 7.79M70.65 63.764 74.8 69.6" transform="translate(-.133 -17.662)"/><text xml:space="preserve" style="font-style:normal;font-weight:400;font-size:23.8125px;line-height:29.7654px;font-family:sans-serif;fill:#35a7ff;fill-opacity:1;stroke:none;stroke-width:.264583" x="95.966" y="111.059" transform="translate(.558 -68.038)"><tspan style="font-style:normal;font-variant:normal;font-weight:700;font-stretch:normal;font-size:23.8125px;font-family:FreeMono;-inkscape-font-specification:'FreeMono Bold';stroke-width:.264583" x="95.966" y="111.059">Bianca</tspan></text><text xml:space="preserve" style="font-style:normal;font-weight:400;font-size:10.5833px;line-height:1.25;font-family:sans-serif;fill:#5e6472;fill-opacity:1;stroke:none;stroke-width:.264583" x="102.774" y="123.795" transform="translate(.558 -68.038)"><tspan x="102.774" y="123.795" style="font-style:normal;font-variant:normal;font-weight:400;font-stretch:normal;font-family:sans-serif;-inkscape-font-specification:sans-serif;stroke-width:.264583">Makeup Artist</tspan></text></g></svg>